# xmcd CD database file
#
# Track frame offsets:
#	150
#	24842
#	42720
#	62937
#	91417
#
# Disc length: 1508 seconds
#
# Revision: 2
# Processed by: cddbd v1.5.2PL0 Copyright (c) Steve Scherf et al.
# Submitted via: CDex 1.82
#
DISCID=3d05e205
DTITLE=Anita Baker - Sweet Love
DYEAR=1986
DGENRE=Soul
TTITLE0=Caught Up In The Rapture
TTITLE1=Same Ole Love
TTITLE2=You Bring Me Joy
TTITLE3=Watch Your Step
TTITLE4=Sweet Love
EXTD=YEAR: 1986
EXTT0=
EXTT1=
EXTT2=
EXTT3=
EXTT4=
PLAYORDER=
